<svg id="Capa_1" enable-background="new 0 0 512 512" height="512" viewBox="0 0 512 512" width="512" xmlns="http://www.w3.org/2000/svg"><g><path d="m392.749 425.723c-17.463-46.496-20.257-143.474-20.257-175.425h-232.985c0 31.952-2.794 128.929-20.257 175.425z" fill="#daa985"/><path d="m285.736 28.763h-12.117v-23.025c0-3.169-2.569-5.738-5.738-5.738h-23.762c-3.169 0-5.738 2.569-5.738 5.738v23.025h-12.117c-3.169 0-5.738 2.569-5.738 5.738v23.762c0 3.169 2.569 5.738 5.738 5.738h12.117v37.665h35.238v-37.664h12.117c3.169 0 5.738-2.569 5.738-5.738v-23.763c0-3.169-2.569-5.738-5.738-5.738z" fill="#e7c7af"/><path d="m134.153 181.561h243.694c2.533-11.531 6.573-27.113 10.564-40.598 4.494-15.178-5.028-30.887-20.552-33.989-39.693-7.93-87.995-9.384-111.859-9.384s-72.166 1.454-111.86 9.385c-15.523 3.102-25.045 18.81-20.552 33.989 3.993 13.484 8.032 29.067 10.565 40.597z" fill="#daa985"/><path d="m373.079 281.203c-.439-12.796-.587-23.568-.587-30.905h-232.985c0 7.337-.148 18.109-.587 30.905z" fill="#d2896f"/><g><g><ellipse cx="176.355" cy="357.005" fill="#fff" rx="29.387" ry="23.403"/><ellipse cx="335.645" cy="357.005" fill="#fff" rx="29.387" ry="23.403"/><path d="m279.694 339.024c0-14.643-10.608-16.019-23.693-16.019s-23.693 1.376-23.693 16.019 10.608 26.513 23.693 26.513c13.085-.001 23.693-11.871 23.693-26.513z" fill="#4e5660"/></g><g fill="#4e5660"><path d="m181.268 336.565c-4.142 0-7.5-3.358-7.5-7.5v-12c0-4.142 3.358-7.5 7.5-7.5s7.5 3.358 7.5 7.5v12c0 4.142-3.358 7.5-7.5 7.5z"/><path d="m330.732 336.565c-4.142 0-7.5-3.358-7.5-7.5v-12c0-4.142 3.358-7.5 7.5-7.5s7.5 3.358 7.5 7.5v12c0 4.142-3.358 7.5-7.5 7.5z"/></g></g><path d="m377.847 181.561c1.943-8.843 4.771-20.068 7.786-30.905h-259.266c3.015 10.837 5.843 22.062 7.786 30.905z" fill="#d2896f"/><path d="m385.236 250.298h-258.472c-15.46 0-27.993-12.533-27.993-27.993v-12.751c0-15.46 12.533-27.993 27.993-27.993h258.471c15.46 0 27.993 12.533 27.993 27.993v12.751c0 15.46-12.533 27.993-27.992 27.993z" fill="#f2d98d"/><path d="m126.764 181.561c-15.46 0-27.993 12.533-27.993 27.993v12.751c0 15.46 12.533 27.993 27.993 27.993h107.236c-19.985-16.131-23.326-50.093-17.483-68.737z" fill="#eec076"/><path d="m414.402 464.84h-316.804v-22.967c0-8.919 7.231-16.15 16.15-16.15h284.504c8.919 0 16.15 7.23 16.15 16.15z" fill="#f2d98d"/><path d="m417.053 464.84h-322.106c-12.226 0-22.92 8.23-26.051 20.047l-2.111 7.969c-2.563 9.67 4.728 19.144 14.731 19.144h348.968c10.003 0 17.294-9.474 14.732-19.143l-2.111-7.969c-3.132-11.819-13.826-20.048-26.052-20.048z" fill="#e7c7af"/><path d="m229.062 464.84h-134.115c-12.226 0-22.92 8.23-26.051 20.047l-2.111 7.969c-2.563 9.67 4.728 19.144 14.731 19.144h159.437c-14.681-9.236-17.044-31.447-11.891-47.16z" fill="#daa985"/></g></svg>